<?xml version="1.0" encoding="UTF-8" standalone="no"?>
<!-- Creator: CorelDRAW X7 -->

<svg
   xmlns:dc="http://purl.org/dc/elements/1.1/"
   xmlns:cc="http://creativecommons.org/ns#"
   xmlns:rdf="http://www.w3.org/1999/02/22-rdf-syntax-ns#"
   xmlns:svg="http://www.w3.org/2000/svg"
   xmlns="http://www.w3.org/2000/svg"
   xmlns:sodipodi="http://sodipodi.sourceforge.net/DTD/sodipodi-0.dtd"
   xmlns:inkscape="http://www.inkscape.org/namespaces/inkscape"
   xml:space="preserve"
   width="100%"
   height="100%"
   version="1.1"
   style="shape-rendering:geometricPrecision; text-rendering:geometricPrecision; image-rendering:optimizeQuality; fill-rule:evenodd; clip-rule:evenodd"
   viewBox="0 0 4326 4326"
   id="svg2"
   inkscape:version="0.91 r13725"
   sodipodi:docname="LOGO-white_back_alfa.svg"><metadata
   id="metadata30"><rdf:RDF><cc:Work
       rdf:about=""><dc:format>image/svg+xml</dc:format><dc:type
         rdf:resource="http://purl.org/dc/dcmitype/StillImage" /><dc:title></dc:title></cc:Work></rdf:RDF></metadata><sodipodi:namedview
   pagecolor="#ffffff"
   bordercolor="#666666"
   borderopacity="1"
   objecttolerance="10"
   gridtolerance="10"
   guidetolerance="10"
   inkscape:pageopacity="0"
   inkscape:pageshadow="2"
   inkscape:window-width="701"
   inkscape:window-height="480"
   id="namedview28"
   showgrid="false"
   inkscape:zoom="0.05455386"
   inkscape:cx="2163"
   inkscape:cy="2144.6695"
   inkscape:window-x="85"
   inkscape:window-y="57"
   inkscape:window-maximized="0"
   inkscape:current-layer="svg2" />
 <defs
   id="defs4">
  <style
   type="text/css"
   id="style6">
   <![CDATA[
    .str0 {stroke:#373435;stroke-width:7.62}
    .fil2 {fill:#373435}
    .fil1 {fill:black}
    .fil0 {fill:white}
    .fil3 {fill:black;fill-rule:nonzero}
   ]]>
  </style>
 </defs>
 <g
   id="Layer_x0020_1"
   style="opacity:0">
  <metadata
   id="CorelCorpID_0Corel-Layer" />
  <rect
   class="fil0 str0"
   x="4"
   y="4"
   width="4318"
   height="4318"
   id="rect10"
   style="" />
 </g>
 <g
   id="PYDXF">
  <metadata
   id="CorelCorpID_1Corel-Layer" />
  <path
   class="fil1"
   d="M168 2972l0 -1618 3991 0 0 1618 -3991 0zm62 -1557l0 1497 3867 0 0 -1497 -3867 0z"
   id="path14" />
  <g
   id="_835480128">
   <path
   class="fil2"
   d="M455 2306l0 12c0,13 -4,24 -18,24 -15,0 -19,-11 -19,-24l0 -89c0,-13 4,-25 19,-25 13,0 18,10 18,22 2,32 20,54 47,70 27,15 55,22 86,22 31,0 61,-7 87,-25 27,-18 42,-43 42,-75 0,-37 -20,-60 -52,-75 -21,-9 -55,-14 -77,-18 -33,-5 -74,-14 -103,-32 -34,-21 -50,-51 -50,-90 0,-40 16,-71 47,-95 30,-23 66,-32 103,-32 43,0 81,13 114,40l0 -6c0,-12 5,-24 19,-24 14,0 19,12 19,24l0 83c0,13 -4,24 -19,24 -13,0 -18,-10 -19,-22 -1,-27 -16,-47 -39,-61 -22,-14 -47,-21 -74,-21 -28,0 -54,7 -77,23 -24,16 -37,38 -37,67 0,25 10,45 31,59 24,15 63,23 90,28 27,4 67,11 92,22 46,21 69,56 69,107 0,43 -18,77 -53,102 -33,24 -72,34 -113,34 -51,0 -97,-14 -133,-49zm737 -273l0 -5c0,-13 4,-24 19,-24 15,0 19,11 19,24l0 73c0,13 -4,25 -19,25 -13,0 -18,-10 -19,-22 -2,-28 -23,-45 -47,-57 -24,-11 -50,-17 -77,-17 -40,0 -76,11 -104,40 -29,29 -40,65 -40,106 0,39 12,74 40,102 29,28 65,40 105,40 56,0 105,-19 146,-58 4,-4 10,-9 16,-9 12,0 18,7 18,18 0,17 -28,36 -40,44 -43,28 -90,42 -142,42 -49,0 -94,-15 -130,-50 -35,-35 -51,-79 -51,-129 0,-51 16,-96 52,-132 36,-36 81,-52 132,-52 45,0 87,12 122,41zm525 141c0,50 -18,93 -54,128 -36,36 -79,53 -130,53 -50,0 -93,-17 -129,-53 -37,-35 -54,-78 -54,-128 0,-51 18,-94 54,-129 36,-36 79,-53 129,-53 51,0 94,17 130,53 36,35 54,78 54,129zm170 94l0 186 76 0c13,0 25,4 25,18 0,15 -12,19 -25,19l-154 0c-13,0 -24,-4 -24,-19 0,-14 11,-18 24,-18l41 0 0 -413 -41 0c-13,0 -24,-4 -24,-19 0,-14 11,-18 24,-18l78 0 0 54c37,-41 82,-66 138,-66 31,0 61,7 88,22 28,15 50,36 65,64 15,26 23,55 23,85 0,48 -17,89 -51,122 -35,33 -77,49 -125,49 -56,0 -102,-22 -138,-66zm442 -85c5,38 21,72 51,97 31,27 67,38 108,38 50,0 99,-12 139,-43 4,-4 9,-7 14,-7 12,0 18,7 18,19 0,6 -3,10 -7,14 -20,21 -51,33 -77,41 -29,8 -58,13 -87,13 -54,0 -100,-17 -139,-53 -40,-37 -59,-82 -59,-136 0,-50 19,-92 56,-125 36,-33 79,-49 128,-49 52,0 98,16 134,53 36,38 51,84 50,136l0 2 -329 0zm-650 -9c0,-40 -14,-75 -43,-103 -28,-28 -63,-41 -103,-41 -40,0 -75,13 -103,42 -29,28 -43,62 -43,102 0,40 14,74 43,102 29,28 63,42 103,42 40,0 75,-14 103,-42 29,-28 43,-62 43,-102zm484 -11c0,-38 -13,-69 -40,-95 -28,-26 -60,-38 -98,-38 -37,0 -69,12 -96,38 -28,26 -42,57 -42,95 0,37 14,69 41,95 27,26 60,38 97,38 38,0 70,-12 98,-38 27,-26 40,-58 40,-95zm457 -18c-7,-33 -23,-61 -50,-83 -28,-22 -60,-32 -96,-32 -35,0 -67,10 -95,32 -27,21 -43,50 -50,83l291 0z"
   id="path17" />
  </g>
  <path
   class="fil3"
   d="M752 2219c0,42 -18,76 -52,100 -31,22 -68,33 -112,33 -56,0 -101,-17 -135,-52l0 18c0,14 -5,22 -16,22 -11,0 -16,-8 -16,-22l0 -89c0,-15 5,-22 16,-22 10,0 15,6 16,19 1,30 18,54 48,72 26,15 55,22 87,22 34,0 64,-8 88,-25 29,-19 43,-45 43,-77 0,-36 -18,-61 -53,-77 -13,-6 -39,-12 -78,-18 -46,-8 -80,-19 -102,-32 -33,-20 -49,-49 -49,-88 0,-39 16,-70 47,-93 28,-21 61,-32 101,-32 45,0 84,15 117,43l0 -11c0,-14 5,-21 16,-21 11,0 16,7 16,21l0 83c0,14 -5,21 -16,21 -10,0 -15,-6 -16,-19 -2,-26 -15,-47 -41,-63 -22,-14 -47,-21 -75,-21 -30,0 -57,7 -79,23 -25,17 -38,40 -38,69 0,26 11,46 33,61 17,12 48,21 91,28 44,8 74,15 91,22 45,21 68,55 68,105zm494 50c0,11 -13,25 -39,42 -42,28 -88,41 -140,41 -51,0 -94,-16 -128,-49 -33,-33 -50,-75 -50,-127 0,-52 17,-96 51,-130 34,-34 77,-52 130,-52 49,0 91,15 125,45l0 -11c0,-15 5,-22 16,-22 11,0 16,7 16,22l0 73c0,15 -5,22 -16,22 -10,0 -15,-6 -16,-19 -2,-25 -19,-45 -48,-59 -25,-12 -51,-18 -79,-18 -44,0 -79,14 -106,42 -27,27 -41,63 -41,107 0,42 14,77 42,104 27,27 63,40 106,40 58,0 107,-19 148,-59 5,-5 10,-7 14,-7 10,0 15,5 15,15zm468 -95c0,49 -17,92 -53,126 -35,35 -77,52 -128,52 -50,0 -92,-17 -128,-51 -35,-35 -53,-77 -53,-127 0,-50 18,-93 53,-127 36,-35 78,-53 128,-53 51,0 93,18 128,53 36,34 53,77 53,127zm-33 0c0,-41 -14,-76 -43,-104 -29,-29 -64,-43 -105,-43 -41,0 -76,14 -105,43 -29,28 -43,63 -43,104 0,41 14,75 43,104 29,28 64,42 105,42 41,0 76,-14 105,-42 29,-29 43,-63 43,-104zm517 -11c0,48 -17,88 -50,120 -34,32 -74,49 -123,49 -57,0 -104,-24 -140,-71l0 195 78 0c15,0 22,5 22,16 0,11 -7,16 -22,16l-154 0c-14,0 -22,-5 -22,-16 0,-11 8,-16 22,-16l43 0 0 -417 -43 0c-14,0 -22,-6 -22,-17 0,-11 8,-16 22,-16l76 0 0 59c39,-47 85,-71 140,-71 32,0 61,8 87,22 28,15 49,36 64,63 15,27 22,55 22,84zm-33 0c0,-38 -13,-71 -41,-97 -27,-26 -60,-39 -99,-39 -38,0 -71,13 -98,39 -28,26 -42,59 -42,97 0,38 14,70 41,97 28,26 61,39 99,39 39,0 72,-13 99,-39 28,-27 41,-59 41,-97zm491 124c0,4 -2,8 -6,13 -16,16 -41,29 -76,39 -31,9 -59,13 -86,13 -54,0 -100,-17 -138,-52 -38,-36 -57,-80 -57,-134 0,-49 18,-91 54,-123 35,-32 78,-49 127,-49 55,0 98,18 132,53 33,35 50,79 50,134l-330 0c5,42 23,76 52,101 30,25 66,38 110,38 56,0 103,-14 140,-43 5,-4 9,-6 13,-6 10,0 15,5 15,16zm-33 -139c-7,-37 -24,-66 -51,-88 -28,-22 -60,-33 -98,-33 -37,0 -70,11 -97,33 -27,22 -44,51 -51,88l297 0z"
   id="path19" />
  <g
   id="_835472480">
   <path
   class="fil2"
   d="M3335 1475c-77,-2 -144,143 -170,199 -67,147 -119,307 -174,459 -7,20 -14,40 -21,60 -56,158 -108,325 -177,478 -37,79 -108,224 -205,239 -10,2 -19,2 -29,1 -264,0 -525,-1469 -784,-1469 -258,0 -520,1466 -783,1466 -264,0 -526,-1471 -784,-1471l-3 0 0 -23 3 0c264,0 525,1469 784,1469 258,0 519,-1465 783,-1467 87,-1 166,159 197,224 76,156 135,328 194,491 62,168 124,349 206,508 33,64 112,205 197,203 83,3 155,-163 182,-224 71,-162 127,-337 187,-504 58,-162 115,-336 191,-490 36,-73 113,-223 213,-208 264,0 525,1472 784,1472l3 0 0 25 -3 0c-87,1 -166,-160 -197,-225 -76,-158 -135,-331 -194,-496 -59,-164 -119,-338 -195,-495 -33,-66 -116,-223 -205,-222z"
   id="path22" />
  </g>
  <path
   class="fil1"
   d="M3335 1473c-121,-3 -223,318 -346,660 -138,381 -250,793 -430,776 -261,-1 -523,-1469 -784,-1469 -261,0 -522,1466 -783,1466 -262,0 -523,-1472 -784,-1472l0 -18c261,0 522,1469 784,1469 261,0 522,-1467 783,-1467 199,-3 393,829 595,1222 64,126 134,206 199,205 129,4 239,-362 371,-730 129,-356 247,-719 402,-697 262,0 523,1473 784,1473l0 19c-195,4 -388,-810 -584,-1214 -66,-136 -140,-224 -207,-223z"
   id="path24" />
  <path
   class="fil1"
   d="M3891 2136c32,3 33,10 47,12 -5,1 -11,1 -31,-1 -145,-14 -267,251 -290,187 -26,-72 104,-197 104,-285 0,-6 -4,-9 -10,-9 -22,0 -64,24 -121,117 -45,73 -88,197 -98,197 -72,0 34,-194 47,-219 128,-279 -221,298 -260,203 -6,-15 12,-67 28,-95 -55,60 -94,107 -120,107 -76,0 -43,-71 -39,-91l66 -139c-87,52 -128,60 -207,18 -80,-42 -96,16 -222,26 -28,0 -66,-7 -70,-15 11,0 34,0 76,-6 86,-13 128,-68 212,-43 27,8 66,46 136,29 94,-39 113,-135 137,-137 46,-7 -93,228 -93,303 0,6 3,9 9,9 22,0 64,-25 121,-117 45,-73 88,-197 98,-197 72,0 -34,193 -47,219 -128,278 237,-311 260,-203 4,15 -10,65 -25,93 62,-59 105,-106 134,-106 67,0 29,72 23,91 -19,40 -52,88 -71,126 -102,217 63,-88 206,-74z"
   id="path26" />
 </g>
</svg>